<svg width="20" height="20" viewBox="0 0 20 20" fill="none" xmlns="http://www.w3.org/2000/svg">
<path d="M7.08321 4.58333L9.41062 2.25592C9.73606 1.93048 10.2637 1.93048 10.5891 2.25592L12.9165 4.58333M7.08321 15.4167L9.41062 17.7441C9.73606 18.0695 10.2637 18.0695 10.5891 17.7441L12.9165 15.4167M9.99987 2.5V7.5M9.99987 12.5V17.5M4.58321 12.9167L2.2558 10.5893C1.93036 10.2638 1.93036 9.73618 2.2558 9.41074L4.58321 7.08333M15.4165 12.9167L17.744 10.5893C18.0694 10.2638 18.0694 9.73618 17.744 9.41074L15.4165 7.08333M2.49987 10H7.49987M12.4999 10H17.4999" stroke="#94A3B8" stroke-width="2" stroke-linejoin="round"/>
</svg>
